<?xml version="1.0" encoding="UTF-8" standalone="no"?>
<!DOCTYPE svg PUBLIC "-//W3C//DTD SVG 1.1//EN"
 "http://www.w3.org/Graphics/SVG/1.1/DTD/svg11.dtd">
<!-- Generated by graphviz version 2.40.1 (20161225.0304)
 -->
<!-- Title: Account Pages: 1 -->
<svg width="792pt" height="562pt"
 viewBox="0.00 0.00 791.50 562.00" xmlns="http://www.w3.org/2000/svg" xmlns:xlink="http://www.w3.org/1999/xlink">
<g id="graph0" class="graph" transform="scale(1 1) rotate(0) translate(4 558)">
<title>Account</title>
<polygon fill="#ffffff" stroke="transparent" points="-4,4 -4,-558 787.5,-558 787.5,4 -4,4"/>
<!-- Account -->
<g id="node1" class="node">
<title>Account</title>
<polygon fill="#efefef" stroke="transparent" points="50.5,-165.5 50.5,-200.5 496.5,-200.5 496.5,-165.5 50.5,-165.5"/>
<polygon fill="none" stroke="#000000" points="50.5,-165.5 50.5,-200.5 496.5,-200.5 496.5,-165.5 50.5,-165.5"/>
<text text-anchor="start" x="174.8732" y="-178.3" font-family="Arial Bold" font-size="18.00" fill="#000000">Account</text>
<text text-anchor="start" x="239.8982" y="-178.3" font-family="Arial" font-size="14.00" fill="#000000">    </text>
<text text-anchor="start" x="274.103" y="-178.3" font-family="Arial" font-size="14.00" fill="#666666">[BASIC TABLE]</text>
<polygon fill="none" stroke="#000000" points="50.5,-135.5 50.5,-165.5 496.5,-165.5 496.5,-135.5 50.5,-135.5"/>
<text text-anchor="start" x="57.5" y="-146.9" font-family="Arial" font-size="14.00" fill="#000000">AccountId </text>
<text text-anchor="start" x="123.6388" y="-146.9" font-family="Arial" font-size="14.00" fill="#666666">[BYTES(16)]</text>
<polygon fill="none" stroke="#000000" points="50.5,-105.5 50.5,-135.5 496.5,-135.5 496.5,-105.5 50.5,-105.5"/>
<text text-anchor="start" x="57.4772" y="-116.9" font-family="Arial" font-size="14.00" fill="#000000">CreationTimestamp </text>
<text text-anchor="start" x="183.4814" y="-116.9" font-family="Arial" font-size="14.00" fill="#666666">[TIMESTAMP (allow_commit_timestamp=TRUE)]</text>
<polygon fill="none" stroke="#000000" points="50.5,-75.5 50.5,-105.5 496.5,-105.5 496.5,-75.5 50.5,-75.5"/>
<text text-anchor="start" x="57.5" y="-86.9" font-family="Arial" font-size="14.00" fill="#000000">AccountStatus </text>
<text text-anchor="start" x="151.6486" y="-86.9" font-family="Arial" font-size="14.00" fill="#666666">[INT64]</text>
<polygon fill="none" stroke="#000000" points="50.5,-45.5 50.5,-75.5 496.5,-75.5 496.5,-45.5 50.5,-45.5"/>
<text text-anchor="start" x="57.5" y="-56.9" font-family="Arial" font-size="14.00" fill="#000000">Balance </text>
<text text-anchor="start" x="111.9642" y="-56.9" font-family="Arial" font-size="14.00" fill="#666666">[NUMERIC]</text>
<polygon fill="none" stroke="#000000" stroke-width="3" points="49,-44.5 49,-202.5 498,-202.5 498,-44.5 49,-44.5"/>
</g>
<!-- TransactionHistory -->
<g id="node2" class="node">
<title>TransactionHistory</title>
<polygon fill="#efefef" stroke="transparent" points="43.5,-475.5 43.5,-510.5 502.5,-510.5 502.5,-475.5 43.5,-475.5"/>
<polygon fill="none" stroke="#000000" points="43.5,-475.5 43.5,-510.5 502.5,-510.5 502.5,-475.5 43.5,-475.5"/>
<text text-anchor="start" x="131.8833" y="-488.3" font-family="Arial Bold" font-size="18.00" fill="#000000">TransactionHistory</text>
<text text-anchor="start" x="281.8881" y="-488.3" font-family="Arial" font-size="14.00" fill="#000000">    </text>
<text text-anchor="start" x="316.0929" y="-488.3" font-family="Arial" font-size="14.00" fill="#666666">[BASIC TABLE]</text>
<polygon fill="none" stroke="#000000" points="43.5,-445.5 43.5,-475.5 502.5,-475.5 502.5,-445.5 43.5,-445.5"/>
<text text-anchor="start" x="50.5" y="-456.9" font-family="Arial" font-size="14.00" fill="#000000">AccountId    </text>
<text text-anchor="start" x="146.953" y="-456.9" font-family="Arial" font-size="14.00" fill="#666666">[BYTES(16)]</text>
<polygon fill="none" stroke="#000000" points="43.5,-415.5 43.5,-445.5 502.5,-445.5 502.5,-415.5 43.5,-415.5"/>
<text text-anchor="start" x="50.3713" y="-426.9" font-family="Arial" font-size="14.00" fill="#000000">EventTimestamp    </text>
<text text-anchor="start" x="189.5873" y="-426.9" font-family="Arial" font-size="14.00" fill="#666666">[TIMESTAMP (allow_commit_timestamp=TRUE)]</text>
<polygon fill="none" stroke="#000000" points="43.5,-385.5 43.5,-415.5 502.5,-415.5 502.5,-385.5 43.5,-385.5"/>
<text text-anchor="start" x="50.5" y="-396.9" font-family="Arial" font-size="14.00" fill="#000000">IsCredit    </text>
<text text-anchor="start" x="132.925" y="-396.9" font-family="Arial" font-size="14.00" fill="#666666">[BOOL]</text>
<polygon fill="none" stroke="#000000" points="43.5,-355.5 43.5,-385.5 502.5,-385.5 502.5,-355.5 43.5,-355.5"/>
<text text-anchor="start" x="50.5" y="-366.9" font-family="Arial" font-size="14.00" fill="#000000">Amount    </text>
<text text-anchor="start" x="132.9404" y="-366.9" font-family="Arial" font-size="14.00" fill="#666666">[NUMERIC]</text>
<polygon fill="none" stroke="#000000" points="43.5,-325.5 43.5,-355.5 502.5,-355.5 502.5,-325.5 43.5,-325.5"/>
<text text-anchor="start" x="50.5" y="-336.9" font-family="Arial" font-size="14.00" fill="#000000">Description    </text>
<text text-anchor="start" x="154.7062" y="-336.9" font-family="Arial" font-size="14.00" fill="#666666">[STRING(MAX)]</text>
</g>
<!-- TransactionHistory&#45;&gt;Account -->
<g id="edge1" class="edge">
<title>TransactionHistory:AccountId&#45;&gt;Account:AccountId</title>
<path fill="none" stroke="#000000" d="M512.5073,-459.7927C579.0531,-449.8839 553.6183,-338.3516 502.5,-283 434.137,-208.9757 118.863,-321.0243 50.5,-247 21.4018,-215.4921 7.6111,-150.5 50.5,-150.5"/>
<polygon fill="#000000" stroke="#000000" points="512.4751,-459.7949 502.1827,-456.0112 507.4876,-460.1474 502.5,-460.5 502.5,-460.5 502.5,-460.5 507.4876,-460.1474 502.8173,-464.9888 512.4751,-459.7949 512.4751,-459.7949"/>
<text text-anchor="start" x="509.597" y="-470.5" font-family="Arial" font-size="10.00" fill="#000000">INTERLEAVE IN PARENT Account ON DELETE CASCADE</text>
</g>
</g>
</svg>
