<?xml version="1.0" encoding="UTF-8" standalone="no"?>
<!DOCTYPE svg PUBLIC "-//W3C//DTD SVG 1.1//EN"
 "http://www.w3.org/Graphics/SVG/1.1/DTD/svg11.dtd">
<!-- Generated by graphviz version 2.40.1 (20161225.0304)
 -->
<!-- Title: CustomerRole Pages: 1 -->
<svg width="605pt" height="502pt"
 viewBox="0.00 0.00 604.50 502.00" xmlns="http://www.w3.org/2000/svg" xmlns:xlink="http://www.w3.org/1999/xlink">
<g id="graph0" class="graph" transform="scale(1 1) rotate(0) translate(4 498)">
<title>CustomerRole</title>
<polygon fill="#ffffff" stroke="transparent" points="-4,4 -4,-498 600.5,-498 600.5,4 -4,4"/>
<!-- CustomerRole -->
<g id="node1" class="node">
<title>CustomerRole</title>
<polygon fill="#efefef" stroke="transparent" points="46.5,-412.5 46.5,-447.5 307.5,-447.5 307.5,-412.5 46.5,-412.5"/>
<polygon fill="none" stroke="#000000" points="46.5,-412.5 46.5,-447.5 307.5,-447.5 307.5,-412.5 46.5,-412.5"/>
<text text-anchor="start" x="53.3856" y="-425.3" font-family="Arial Bold" font-size="18.00" fill="#000000">CustomerRole</text>
<text text-anchor="start" x="168.3858" y="-425.3" font-family="Arial" font-size="14.00" fill="#000000">    </text>
<text text-anchor="start" x="202.5906" y="-425.3" font-family="Arial" font-size="14.00" fill="#666666">[BASIC TABLE]</text>
<polygon fill="none" stroke="#000000" points="46.5,-382.5 46.5,-412.5 307.5,-412.5 307.5,-382.5 46.5,-382.5"/>
<text text-anchor="start" x="53.5" y="-393.9" font-family="Arial" font-size="14.00" fill="#000000">CustomerId </text>
<text text-anchor="start" x="129.73" y="-393.9" font-family="Arial" font-size="14.00" fill="#666666">[BYTES(16)]</text>
<polygon fill="none" stroke="#000000" points="46.5,-352.5 46.5,-382.5 307.5,-382.5 307.5,-352.5 46.5,-352.5"/>
<text text-anchor="start" x="53.5" y="-363.9" font-family="Arial" font-size="14.00" fill="#000000">RoleId </text>
<text text-anchor="start" x="97.8422" y="-363.9" font-family="Arial" font-size="14.00" fill="#666666">[BYTES(16)]</text>
<polygon fill="none" stroke="#000000" points="46.5,-322.5 46.5,-352.5 307.5,-352.5 307.5,-322.5 46.5,-322.5"/>
<text text-anchor="start" x="53.5" y="-333.9" font-family="Arial" font-size="14.00" fill="#000000">Role </text>
<text text-anchor="start" x="86.169" y="-333.9" font-family="Arial" font-size="14.00" fill="#666666">[STRING(MAX)]</text>
<polygon fill="none" stroke="#000000" points="46.5,-292.5 46.5,-322.5 307.5,-322.5 307.5,-292.5 46.5,-292.5"/>
<text text-anchor="start" x="53.5" y="-303.9" font-family="Arial" font-size="14.00" fill="#000000">AccountId </text>
<text text-anchor="start" x="119.6388" y="-303.9" font-family="Arial" font-size="14.00" fill="#666666">[BYTES(16)]</text>
<polygon fill="none" stroke="#000000" stroke-width="3" points="44.5,-291.5 44.5,-449.5 308.5,-449.5 308.5,-291.5 44.5,-291.5"/>
</g>
<!-- Customer -->
<g id="node2" class="node">
<title>Customer</title>
<polygon fill="#efefef" stroke="transparent" points="65.5,-132.5 65.5,-167.5 289.5,-167.5 289.5,-132.5 65.5,-132.5"/>
<polygon fill="none" stroke="#000000" points="65.5,-132.5 65.5,-167.5 289.5,-167.5 289.5,-132.5 65.5,-132.5"/>
<text text-anchor="start" x="72.386" y="-145.3" font-family="Arial Bold" font-size="18.00" fill="#000000">Customer</text>
<text text-anchor="start" x="150.3854" y="-145.3" font-family="Arial" font-size="14.00" fill="#000000">    </text>
<text text-anchor="start" x="184.5902" y="-145.3" font-family="Arial" font-size="14.00" fill="#666666">[BASIC TABLE]</text>
<polygon fill="none" stroke="#000000" points="65.5,-102.5 65.5,-132.5 289.5,-132.5 289.5,-102.5 65.5,-102.5"/>
<text text-anchor="start" x="72.5" y="-113.9" font-family="Arial" font-size="14.00" fill="#000000">CustomerId    </text>
<text text-anchor="start" x="179.0442" y="-113.9" font-family="Arial" font-size="14.00" fill="#666666">[BYTES(16)]</text>
<polygon fill="none" stroke="#000000" points="65.5,-72.5 65.5,-102.5 289.5,-102.5 289.5,-72.5 65.5,-72.5"/>
<text text-anchor="start" x="72.5" y="-83.9" font-family="Arial" font-size="14.00" fill="#000000">Name    </text>
<text text-anchor="start" x="144.0372" y="-83.9" font-family="Arial" font-size="14.00" fill="#666666">[STRING(MAX)]</text>
<polygon fill="none" stroke="#000000" points="65.5,-42.5 65.5,-72.5 289.5,-72.5 289.5,-42.5 65.5,-42.5"/>
<text text-anchor="start" x="72.5" y="-53.9" font-family="Arial" font-size="14.00" fill="#000000">Address    </text>
<text text-anchor="start" x="158.0498" y="-53.9" font-family="Arial" font-size="14.00" fill="#666666">[STRING(MAX)]</text>
</g>
<!-- CustomerRole&#45;&gt;Customer -->
<g id="edge1" class="edge">
<title>CustomerRole:CustomerId&#45;&gt;Customer:CustomerId</title>
<path fill="none" stroke="#000000" d="M317.677,-396.6286C371.7891,-386.7269 348.7908,-294.8876 307.5,-247 236.4917,-164.647 136.5083,-293.353 65.5,-211 38.3636,-179.5281 23.9444,-117.5 65.5,-117.5"/>
<polygon fill="#000000" stroke="#000000" points="317.4635,-396.6468 307.116,-393.0164 312.4818,-397.0734 307.5,-397.5 307.5,-397.5 307.5,-397.5 312.4818,-397.0734 307.884,-401.9836 317.4635,-396.6468 317.4635,-396.6468"/>
<text text-anchor="start" x="314.993" y="-407.5" font-family="Arial" font-size="10.00" fill="#000000">INTERLEAVE IN PARENT Customer ON DELETE CASCADE</text>
</g>
</g>
</svg>
