<?xml version="1.0" encoding="UTF-8" standalone="no"?>
<!DOCTYPE svg PUBLIC "-//W3C//DTD SVG 1.1//EN"
 "http://www.w3.org/Graphics/SVG/1.1/DTD/svg11.dtd">
<!-- Generated by graphviz version 2.40.1 (20161225.0304)
 -->
<!-- Title: Customer Pages: 1 -->
<svg width="602pt" height="502pt"
 viewBox="0.00 0.00 601.50 502.00" xmlns="http://www.w3.org/2000/svg" xmlns:xlink="http://www.w3.org/1999/xlink">
<g id="graph0" class="graph" transform="scale(1 1) rotate(0) translate(4 498)">
<title>Customer</title>
<polygon fill="#ffffff" stroke="transparent" points="-4,4 -4,-498 597.5,-498 597.5,4 -4,4"/>
<!-- Customer -->
<g id="node1" class="node">
<title>Customer</title>
<polygon fill="#efefef" stroke="transparent" points="62.5,-135.5 62.5,-170.5 286.5,-170.5 286.5,-135.5 62.5,-135.5"/>
<polygon fill="none" stroke="#000000" points="62.5,-135.5 62.5,-170.5 286.5,-170.5 286.5,-135.5 62.5,-135.5"/>
<text text-anchor="start" x="69.386" y="-148.3" font-family="Arial Bold" font-size="18.00" fill="#000000">Customer</text>
<text text-anchor="start" x="147.3854" y="-148.3" font-family="Arial" font-size="14.00" fill="#000000">    </text>
<text text-anchor="start" x="181.5902" y="-148.3" font-family="Arial" font-size="14.00" fill="#666666">[BASIC TABLE]</text>
<polygon fill="none" stroke="#000000" points="62.5,-105.5 62.5,-135.5 286.5,-135.5 286.5,-105.5 62.5,-105.5"/>
<text text-anchor="start" x="69.5" y="-116.9" font-family="Arial" font-size="14.00" fill="#000000">CustomerId </text>
<text text-anchor="start" x="145.73" y="-116.9" font-family="Arial" font-size="14.00" fill="#666666">[BYTES(16)]</text>
<polygon fill="none" stroke="#000000" points="62.5,-75.5 62.5,-105.5 286.5,-105.5 286.5,-75.5 62.5,-75.5"/>
<text text-anchor="start" x="69.5" y="-86.9" font-family="Arial" font-size="14.00" fill="#000000">Name </text>
<text text-anchor="start" x="110.723" y="-86.9" font-family="Arial" font-size="14.00" fill="#666666">[STRING(MAX)]</text>
<polygon fill="none" stroke="#000000" points="62.5,-45.5 62.5,-75.5 286.5,-75.5 286.5,-45.5 62.5,-45.5"/>
<text text-anchor="start" x="69.5" y="-56.9" font-family="Arial" font-size="14.00" fill="#000000">Address </text>
<text text-anchor="start" x="124.7356" y="-56.9" font-family="Arial" font-size="14.00" fill="#666666">[STRING(MAX)]</text>
<polygon fill="none" stroke="#000000" stroke-width="3" points="61,-44.5 61,-172.5 288,-172.5 288,-44.5 61,-44.5"/>
</g>
<!-- CustomerRole -->
<g id="node2" class="node">
<title>CustomerRole</title>
<polygon fill="#efefef" stroke="transparent" points="43.5,-415.5 43.5,-450.5 304.5,-450.5 304.5,-415.5 43.5,-415.5"/>
<polygon fill="none" stroke="#000000" points="43.5,-415.5 43.5,-450.5 304.5,-450.5 304.5,-415.5 43.5,-415.5"/>
<text text-anchor="start" x="50.3856" y="-428.3" font-family="Arial Bold" font-size="18.00" fill="#000000">CustomerRole</text>
<text text-anchor="start" x="165.3858" y="-428.3" font-family="Arial" font-size="14.00" fill="#000000">    </text>
<text text-anchor="start" x="199.5906" y="-428.3" font-family="Arial" font-size="14.00" fill="#666666">[BASIC TABLE]</text>
<polygon fill="none" stroke="#000000" points="43.5,-385.5 43.5,-415.5 304.5,-415.5 304.5,-385.5 43.5,-385.5"/>
<text text-anchor="start" x="50.5" y="-396.9" font-family="Arial" font-size="14.00" fill="#000000">CustomerId    </text>
<text text-anchor="start" x="157.0442" y="-396.9" font-family="Arial" font-size="14.00" fill="#666666">[BYTES(16)]</text>
<polygon fill="none" stroke="#000000" points="43.5,-355.5 43.5,-385.5 304.5,-385.5 304.5,-355.5 43.5,-355.5"/>
<text text-anchor="start" x="50.5" y="-366.9" font-family="Arial" font-size="14.00" fill="#000000">RoleId    </text>
<text text-anchor="start" x="125.1564" y="-366.9" font-family="Arial" font-size="14.00" fill="#666666">[BYTES(16)]</text>
<polygon fill="none" stroke="#000000" points="43.5,-325.5 43.5,-355.5 304.5,-355.5 304.5,-325.5 43.5,-325.5"/>
<text text-anchor="start" x="50.5" y="-336.9" font-family="Arial" font-size="14.00" fill="#000000">Role    </text>
<text text-anchor="start" x="113.4832" y="-336.9" font-family="Arial" font-size="14.00" fill="#666666">[STRING(MAX)]</text>
<polygon fill="none" stroke="#000000" points="43.5,-295.5 43.5,-325.5 304.5,-325.5 304.5,-295.5 43.5,-295.5"/>
<text text-anchor="start" x="50.5" y="-306.9" font-family="Arial" font-size="14.00" fill="#000000">AccountId    </text>
<text text-anchor="start" x="146.953" y="-306.9" font-family="Arial" font-size="14.00" fill="#666666">[BYTES(16)]</text>
</g>
<!-- CustomerRole&#45;&gt;Customer -->
<g id="edge1" class="edge">
<title>CustomerRole:CustomerId&#45;&gt;Customer:CustomerId</title>
<path fill="none" stroke="#000000" d="M314.4741,-399.6459C367.5076,-389.9416 344.9677,-299.933 304.5,-253 233.4917,-170.647 133.5083,-299.353 62.5,-217 34.4929,-184.5183 19.6111,-120.5 62.5,-120.5"/>
<polygon fill="#000000" stroke="#000000" points="314.4635,-399.6468 304.116,-396.0164 309.4818,-400.0734 304.5,-400.5 304.5,-400.5 304.5,-400.5 309.4818,-400.0734 304.884,-404.9836 314.4635,-399.6468 314.4635,-399.6468"/>
<text text-anchor="start" x="311.993" y="-410.5" font-family="Arial" font-size="10.00" fill="#000000">INTERLEAVE IN PARENT Customer ON DELETE CASCADE</text>
</g>
</g>
</svg>
