<?xml version="1.0" encoding="UTF-8" standalone="no"?>
<!DOCTYPE svg PUBLIC "-//W3C//DTD SVG 1.1//EN"
 "http://www.w3.org/Graphics/SVG/1.1/DTD/svg11.dtd">
<!-- Generated by graphviz version 2.40.1 (20161225.0304)
 -->
<!-- Title: projects/valiant&#45;song&#45;420805/instances/test&#45;instance/databases/finance&#45;db Pages: 1 -->
<svg width="1631pt" height="556pt"
 viewBox="0.00 0.00 1631.00 556.00" xmlns="http://www.w3.org/2000/svg" xmlns:xlink="http://www.w3.org/1999/xlink">
<g id="graph0" class="graph" transform="scale(1 1) rotate(0) translate(4 552)">
<title>projects/valiant&#45;song&#45;420805/instances/test&#45;instance/databases/finance&#45;db</title>
<polygon fill="#ffffff" stroke="transparent" points="-4,4 -4,-552 1627,-552 1627,4 -4,4"/>
<!-- Account -->
<g id="node1" class="node">
<title>Account</title>
<polygon fill="#efefef" stroke="transparent" points="43,-162.5 43,-197.5 519,-197.5 519,-162.5 43,-162.5"/>
<polygon fill="none" stroke="#000000" points="43,-162.5 43,-197.5 519,-197.5 519,-162.5 43,-162.5"/>
<text text-anchor="start" x="182.3732" y="-175.3" font-family="Arial Bold" font-size="18.00" fill="#000000">Account</text>
<text text-anchor="start" x="247.3982" y="-175.3" font-family="Arial" font-size="14.00" fill="#000000">    </text>
<text text-anchor="start" x="281.603" y="-175.3" font-family="Arial" font-size="14.00" fill="#666666">[BASIC TABLE]</text>
<polygon fill="none" stroke="#000000" points="43,-132.5 43,-162.5 519,-162.5 519,-132.5 43,-132.5"/>
<text text-anchor="start" x="50" y="-143.9" font-family="Arial" font-size="14.00" fill="#000000">AccountId    </text>
<text text-anchor="start" x="146.453" y="-143.9" font-family="Arial" font-size="14.00" fill="#666666">[BYTES(16)]</text>
<polygon fill="none" stroke="#000000" points="43,-102.5 43,-132.5 519,-132.5 519,-102.5 43,-102.5"/>
<text text-anchor="start" x="49.8201" y="-113.9" font-family="Arial" font-size="14.00" fill="#000000">CreationTimestamp    </text>
<text text-anchor="start" x="206.1385" y="-113.9" font-family="Arial" font-size="14.00" fill="#666666">[TIMESTAMP (allow_commit_timestamp=TRUE)]</text>
<polygon fill="none" stroke="#000000" points="43,-72.5 43,-102.5 519,-102.5 519,-72.5 43,-72.5"/>
<text text-anchor="start" x="50" y="-83.9" font-family="Arial" font-size="14.00" fill="#000000">AccountStatus    </text>
<text text-anchor="start" x="174.4628" y="-83.9" font-family="Arial" font-size="14.00" fill="#666666">[INT64]</text>
<polygon fill="none" stroke="#000000" points="43,-42.5 43,-72.5 519,-72.5 519,-42.5 43,-42.5"/>
<text text-anchor="start" x="50" y="-53.9" font-family="Arial" font-size="14.00" fill="#000000">Balance    </text>
<text text-anchor="start" x="134.7784" y="-53.9" font-family="Arial" font-size="14.00" fill="#666666">[NUMERIC]</text>
</g>
<!-- CloudSpannerSampleApp -->
<g id="node2" class="node">
<title>CloudSpannerSampleApp</title>
<polygon fill="#efefef" stroke="transparent" points="614,-409.5 614,-444.5 968,-444.5 968,-409.5 614,-409.5"/>
<polygon fill="none" stroke="#000000" points="614,-409.5 614,-444.5 968,-444.5 968,-409.5 614,-409.5"/>
<text text-anchor="start" x="620.8556" y="-422.3" font-family="Arial Bold" font-size="18.00" fill="#000000">CloudSpannerSampleApp</text>
<text text-anchor="start" x="828.9158" y="-422.3" font-family="Arial" font-size="14.00" fill="#000000">    </text>
<text text-anchor="start" x="863.1206" y="-422.3" font-family="Arial" font-size="14.00" fill="#666666">[BASIC TABLE]</text>
<polygon fill="none" stroke="#000000" points="614,-379.5 614,-409.5 968,-409.5 968,-379.5 614,-379.5"/>
<text text-anchor="start" x="621" y="-390.9" font-family="Arial" font-size="14.00" fill="#000000">Id    </text>
<text text-anchor="start" x="666.878" y="-390.9" font-family="Arial" font-size="14.00" fill="#666666">[INT64]</text>
</g>
<!-- Customer -->
<g id="node3" class="node">
<title>Customer</title>
<polygon fill="#efefef" stroke="transparent" points="1092,-147.5 1092,-182.5 1316,-182.5 1316,-147.5 1092,-147.5"/>
<polygon fill="none" stroke="#000000" points="1092,-147.5 1092,-182.5 1316,-182.5 1316,-147.5 1092,-147.5"/>
<text text-anchor="start" x="1098.886" y="-160.3" font-family="Arial Bold" font-size="18.00" fill="#000000">Customer</text>
<text text-anchor="start" x="1176.8854" y="-160.3" font-family="Arial" font-size="14.00" fill="#000000">    </text>
<text text-anchor="start" x="1211.0902" y="-160.3" font-family="Arial" font-size="14.00" fill="#666666">[BASIC TABLE]</text>
<polygon fill="none" stroke="#000000" points="1092,-117.5 1092,-147.5 1316,-147.5 1316,-117.5 1092,-117.5"/>
<text text-anchor="start" x="1099" y="-128.9" font-family="Arial" font-size="14.00" fill="#000000">CustomerId    </text>
<text text-anchor="start" x="1205.5442" y="-128.9" font-family="Arial" font-size="14.00" fill="#666666">[BYTES(16)]</text>
<polygon fill="none" stroke="#000000" points="1092,-87.5 1092,-117.5 1316,-117.5 1316,-87.5 1092,-87.5"/>
<text text-anchor="start" x="1099" y="-98.9" font-family="Arial" font-size="14.00" fill="#000000">Name    </text>
<text text-anchor="start" x="1170.5372" y="-98.9" font-family="Arial" font-size="14.00" fill="#666666">[STRING(MAX)]</text>
<polygon fill="none" stroke="#000000" points="1092,-57.5 1092,-87.5 1316,-87.5 1316,-57.5 1092,-57.5"/>
<text text-anchor="start" x="1099" y="-68.9" font-family="Arial" font-size="14.00" fill="#000000">Address    </text>
<text text-anchor="start" x="1184.5498" y="-68.9" font-family="Arial" font-size="14.00" fill="#666666">[STRING(MAX)]</text>
</g>
<!-- CustomerRole -->
<g id="node4" class="node">
<title>CustomerRole</title>
<polygon fill="#efefef" stroke="transparent" points="1073,-454.5 1073,-489.5 1334,-489.5 1334,-454.5 1073,-454.5"/>
<polygon fill="none" stroke="#000000" points="1073,-454.5 1073,-489.5 1334,-489.5 1334,-454.5 1073,-454.5"/>
<text text-anchor="start" x="1079.8856" y="-467.3" font-family="Arial Bold" font-size="18.00" fill="#000000">CustomerRole</text>
<text text-anchor="start" x="1194.8858" y="-467.3" font-family="Arial" font-size="14.00" fill="#000000">    </text>
<text text-anchor="start" x="1229.0906" y="-467.3" font-family="Arial" font-size="14.00" fill="#666666">[BASIC TABLE]</text>
<polygon fill="none" stroke="#000000" points="1073,-424.5 1073,-454.5 1334,-454.5 1334,-424.5 1073,-424.5"/>
<text text-anchor="start" x="1080" y="-435.9" font-family="Arial" font-size="14.00" fill="#000000">CustomerId    </text>
<text text-anchor="start" x="1186.5442" y="-435.9" font-family="Arial" font-size="14.00" fill="#666666">[BYTES(16)]</text>
<polygon fill="none" stroke="#000000" points="1073,-394.5 1073,-424.5 1334,-424.5 1334,-394.5 1073,-394.5"/>
<text text-anchor="start" x="1080" y="-405.9" font-family="Arial" font-size="14.00" fill="#000000">RoleId    </text>
<text text-anchor="start" x="1154.6564" y="-405.9" font-family="Arial" font-size="14.00" fill="#666666">[BYTES(16)]</text>
<polygon fill="none" stroke="#000000" points="1073,-364.5 1073,-394.5 1334,-394.5 1334,-364.5 1073,-364.5"/>
<text text-anchor="start" x="1080" y="-375.9" font-family="Arial" font-size="14.00" fill="#000000">Role    </text>
<text text-anchor="start" x="1142.9832" y="-375.9" font-family="Arial" font-size="14.00" fill="#666666">[STRING(MAX)]</text>
<polygon fill="none" stroke="#000000" points="1073,-334.5 1073,-364.5 1334,-364.5 1334,-334.5 1073,-334.5"/>
<text text-anchor="start" x="1080" y="-345.9" font-family="Arial" font-size="14.00" fill="#000000">AccountId    </text>
<text text-anchor="start" x="1176.453" y="-345.9" font-family="Arial" font-size="14.00" fill="#666666">[BYTES(16)]</text>
</g>
<!-- CustomerRole&#45;&gt;Customer -->
<g id="edge1" class="edge">
<title>CustomerRole:CustomerId&#45;&gt;Customer:CustomerId</title>
<path fill="none" stroke="#000000" d="M1344.2745,-438.607C1396.592,-428.8316 1371.538,-341.1466 1334,-292 1266.33,-203.4031 1159.67,-314.5969 1092,-226 1066.776,-192.9755 1050.4444,-132.5 1092,-132.5"/>
<polygon fill="#000000" stroke="#000000" points="1343.9624,-438.634 1333.6103,-435.0169 1338.9812,-439.067 1334,-439.5 1334,-439.5 1334,-439.5 1338.9812,-439.067 1334.3897,-443.9831 1343.9624,-438.634 1343.9624,-438.634"/>
<text text-anchor="start" x="1341.493" y="-449.5" font-family="Arial" font-size="10.00" fill="#000000">INTERLEAVE IN PARENT Customer ON DELETE CASCADE</text>
</g>
<!-- TransactionHistory -->
<g id="node5" class="node">
<title>TransactionHistory</title>
<polygon fill="#efefef" stroke="transparent" points="51,-469.5 51,-504.5 510,-504.5 510,-469.5 51,-469.5"/>
<polygon fill="none" stroke="#000000" points="51,-469.5 51,-504.5 510,-504.5 510,-469.5 51,-469.5"/>
<text text-anchor="start" x="139.3833" y="-482.3" font-family="Arial Bold" font-size="18.00" fill="#000000">TransactionHistory</text>
<text text-anchor="start" x="289.3881" y="-482.3" font-family="Arial" font-size="14.00" fill="#000000">    </text>
<text text-anchor="start" x="323.5929" y="-482.3" font-family="Arial" font-size="14.00" fill="#666666">[BASIC TABLE]</text>
<polygon fill="none" stroke="#000000" points="51,-439.5 51,-469.5 510,-469.5 510,-439.5 51,-439.5"/>
<text text-anchor="start" x="58" y="-450.9" font-family="Arial" font-size="14.00" fill="#000000">AccountId    </text>
<text text-anchor="start" x="154.453" y="-450.9" font-family="Arial" font-size="14.00" fill="#666666">[BYTES(16)]</text>
<polygon fill="none" stroke="#000000" points="51,-409.5 51,-439.5 510,-439.5 510,-409.5 51,-409.5"/>
<text text-anchor="start" x="57.8713" y="-420.9" font-family="Arial" font-size="14.00" fill="#000000">EventTimestamp    </text>
<text text-anchor="start" x="197.0873" y="-420.9" font-family="Arial" font-size="14.00" fill="#666666">[TIMESTAMP (allow_commit_timestamp=TRUE)]</text>
<polygon fill="none" stroke="#000000" points="51,-379.5 51,-409.5 510,-409.5 510,-379.5 51,-379.5"/>
<text text-anchor="start" x="58" y="-390.9" font-family="Arial" font-size="14.00" fill="#000000">IsCredit    </text>
<text text-anchor="start" x="140.425" y="-390.9" font-family="Arial" font-size="14.00" fill="#666666">[BOOL]</text>
<polygon fill="none" stroke="#000000" points="51,-349.5 51,-379.5 510,-379.5 510,-349.5 51,-349.5"/>
<text text-anchor="start" x="58" y="-360.9" font-family="Arial" font-size="14.00" fill="#000000">Amount    </text>
<text text-anchor="start" x="140.4404" y="-360.9" font-family="Arial" font-size="14.00" fill="#666666">[NUMERIC]</text>
<polygon fill="none" stroke="#000000" points="51,-319.5 51,-349.5 510,-349.5 510,-319.5 51,-319.5"/>
<text text-anchor="start" x="58" y="-330.9" font-family="Arial" font-size="14.00" fill="#000000">Description    </text>
<text text-anchor="start" x="162.2062" y="-330.9" font-family="Arial" font-size="14.00" fill="#666666">[STRING(MAX)]</text>
</g>
<!-- TransactionHistory&#45;&gt;Account -->
<g id="edge2" class="edge">
<title>TransactionHistory:AccountId&#45;&gt;Account:AccountId</title>
<path fill="none" stroke="#000000" d="M520.0077,-453.7923C586.5594,-443.8781 561.1886,-332.2865 510,-277 439.2853,-200.6242 113.7147,-317.3758 43,-241 14.7676,-210.5075 1.4444,-147.5 43,-147.5"/>
<polygon fill="#000000" stroke="#000000" points="519.9751,-453.7945 509.6825,-450.0112 514.9875,-454.1473 510,-454.5 510,-454.5 510,-454.5 514.9875,-454.1473 510.3175,-458.9888 519.9751,-453.7945 519.9751,-453.7945"/>
<text text-anchor="start" x="517.097" y="-464.5" font-family="Arial" font-size="10.00" fill="#000000">INTERLEAVE IN PARENT Account ON DELETE CASCADE</text>
</g>
</g>
</svg>
