<?xml version="1.0" encoding="UTF-8" standalone="no"?>
<!DOCTYPE svg PUBLIC "-//W3C//DTD SVG 1.1//EN"
 "http://www.w3.org/Graphics/SVG/1.1/DTD/svg11.dtd">
<!-- Generated by graphviz version 2.40.1 (20161225.0304)
 -->
<!-- Title: TransactionHistory Pages: 1 -->
<svg width="784pt" height="562pt"
 viewBox="0.00 0.00 784.00 562.00" xmlns="http://www.w3.org/2000/svg" xmlns:xlink="http://www.w3.org/1999/xlink">
<g id="graph0" class="graph" transform="scale(1 1) rotate(0) translate(4 558)">
<title>TransactionHistory</title>
<polygon fill="#ffffff" stroke="transparent" points="-4,4 -4,-558 780,-558 780,4 -4,4"/>
<!-- TransactionHistory -->
<g id="node1" class="node">
<title>TransactionHistory</title>
<polygon fill="#efefef" stroke="transparent" points="67,-472.5 67,-507.5 495,-507.5 495,-472.5 67,-472.5"/>
<polygon fill="none" stroke="#000000" points="67,-472.5 67,-507.5 495,-507.5 495,-472.5 67,-472.5"/>
<text text-anchor="start" x="139.8833" y="-485.3" font-family="Arial Bold" font-size="18.00" fill="#000000">TransactionHistory</text>
<text text-anchor="start" x="289.8881" y="-485.3" font-family="Arial" font-size="14.00" fill="#000000">    </text>
<text text-anchor="start" x="324.0929" y="-485.3" font-family="Arial" font-size="14.00" fill="#666666">[BASIC TABLE]</text>
<polygon fill="none" stroke="#000000" points="67,-442.5 67,-472.5 495,-472.5 495,-442.5 67,-442.5"/>
<text text-anchor="start" x="74" y="-453.9" font-family="Arial" font-size="14.00" fill="#000000">AccountId </text>
<text text-anchor="start" x="140.1388" y="-453.9" font-family="Arial" font-size="14.00" fill="#666666">[BYTES(16)]</text>
<polygon fill="none" stroke="#000000" points="67,-412.5 67,-442.5 495,-442.5 495,-412.5 67,-412.5"/>
<text text-anchor="start" x="73.5284" y="-423.9" font-family="Arial" font-size="14.00" fill="#000000">EventTimestamp </text>
<text text-anchor="start" x="182.4302" y="-423.9" font-family="Arial" font-size="14.00" fill="#666666">[TIMESTAMP (allow_commit_timestamp=TRUE)]</text>
<polygon fill="none" stroke="#000000" points="67,-382.5 67,-412.5 495,-412.5 495,-382.5 67,-382.5"/>
<text text-anchor="start" x="74" y="-393.9" font-family="Arial" font-size="14.00" fill="#000000">IsCredit </text>
<text text-anchor="start" x="126.1108" y="-393.9" font-family="Arial" font-size="14.00" fill="#666666">[BOOL]</text>
<polygon fill="none" stroke="#000000" points="67,-352.5 67,-382.5 495,-382.5 495,-352.5 67,-352.5"/>
<text text-anchor="start" x="74" y="-363.9" font-family="Arial" font-size="14.00" fill="#000000">Amount </text>
<text text-anchor="start" x="126.1262" y="-363.9" font-family="Arial" font-size="14.00" fill="#666666">[NUMERIC]</text>
<polygon fill="none" stroke="#000000" points="67,-322.5 67,-352.5 495,-352.5 495,-322.5 67,-322.5"/>
<text text-anchor="start" x="74" y="-333.9" font-family="Arial" font-size="14.00" fill="#000000">Description </text>
<text text-anchor="start" x="147.892" y="-333.9" font-family="Arial" font-size="14.00" fill="#666666">[STRING(MAX)]</text>
<polygon fill="none" stroke="#000000" stroke-width="3" points="65.5,-321.5 65.5,-509.5 496.5,-509.5 496.5,-321.5 65.5,-321.5"/>
</g>
<!-- Account -->
<g id="node2" class="node">
<title>Account</title>
<polygon fill="#efefef" stroke="transparent" points="43,-162.5 43,-197.5 519,-197.5 519,-162.5 43,-162.5"/>
<polygon fill="none" stroke="#000000" points="43,-162.5 43,-197.5 519,-197.5 519,-162.5 43,-162.5"/>
<text text-anchor="start" x="182.3732" y="-175.3" font-family="Arial Bold" font-size="18.00" fill="#000000">Account</text>
<text text-anchor="start" x="247.3982" y="-175.3" font-family="Arial" font-size="14.00" fill="#000000">    </text>
<text text-anchor="start" x="281.603" y="-175.3" font-family="Arial" font-size="14.00" fill="#666666">[BASIC TABLE]</text>
<polygon fill="none" stroke="#000000" points="43,-132.5 43,-162.5 519,-162.5 519,-132.5 43,-132.5"/>
<text text-anchor="start" x="50" y="-143.9" font-family="Arial" font-size="14.00" fill="#000000">AccountId    </text>
<text text-anchor="start" x="146.453" y="-143.9" font-family="Arial" font-size="14.00" fill="#666666">[BYTES(16)]</text>
<polygon fill="none" stroke="#000000" points="43,-102.5 43,-132.5 519,-132.5 519,-102.5 43,-102.5"/>
<text text-anchor="start" x="49.8201" y="-113.9" font-family="Arial" font-size="14.00" fill="#000000">CreationTimestamp    </text>
<text text-anchor="start" x="206.1385" y="-113.9" font-family="Arial" font-size="14.00" fill="#666666">[TIMESTAMP (allow_commit_timestamp=TRUE)]</text>
<polygon fill="none" stroke="#000000" points="43,-72.5 43,-102.5 519,-102.5 519,-72.5 43,-72.5"/>
<text text-anchor="start" x="50" y="-83.9" font-family="Arial" font-size="14.00" fill="#000000">AccountStatus    </text>
<text text-anchor="start" x="174.4628" y="-83.9" font-family="Arial" font-size="14.00" fill="#666666">[INT64]</text>
<polygon fill="none" stroke="#000000" points="43,-42.5 43,-72.5 519,-72.5 519,-42.5 43,-42.5"/>
<text text-anchor="start" x="50" y="-53.9" font-family="Arial" font-size="14.00" fill="#000000">Balance    </text>
<text text-anchor="start" x="134.7784" y="-53.9" font-family="Arial" font-size="14.00" fill="#666666">[NUMERIC]</text>
</g>
<!-- TransactionHistory&#45;&gt;Account -->
<g id="edge1" class="edge">
<title>TransactionHistory:AccountId&#45;&gt;Account:AccountId</title>
<path fill="none" stroke="#000000" d="M504.7932,-455.3549C566.2168,-427.9657 584.7213,-147.5 519,-147.5"/>
<polygon fill="#000000" stroke="#000000" points="504.7684,-455.3602 494.0371,-453.1042 499.8842,-456.4301 495,-457.5 495,-457.5 495,-457.5 499.8842,-456.4301 495.9629,-461.8958 504.7684,-455.3602 504.7684,-455.3602"/>
<text text-anchor="start" x="502.097" y="-467.5" font-family="Arial" font-size="10.00" fill="#000000">INTERLEAVE IN PARENT Account ON DELETE CASCADE</text>
</g>
</g>
</svg>
